<?xml version="1.0" encoding="UTF-8" standalone="no"?>
<!DOCTYPE svg PUBLIC "-//W3C//DTD SVG 1.1//EN"
 "http://www.w3.org/Graphics/SVG/1.1/DTD/svg11.dtd">
<!-- Generated by graphviz version 2.43.0 (0)
 -->
<!-- Title: %3 Pages: 1 -->
<svg width="692pt" height="332pt"
 viewBox="0.00 0.00 692.20 332.00" xmlns="http://www.w3.org/2000/svg" xmlns:xlink="http://www.w3.org/1999/xlink">
<g id="graph0" class="graph" transform="scale(1 1) rotate(0) translate(4 328)">
<title>%3</title>
<polygon fill="white" stroke="transparent" points="-4,4 -4,-328 688.2,-328 688.2,4 -4,4"/>
<!-- A -->
<g id="node1" class="node">
<title>A</title>
<polygon fill="lightblue" stroke="black" points="497.2,-324 419.2,-324 419.2,-288 497.2,-288 497.2,-324"/>
<text text-anchor="middle" x="458.2" y="-302.3" font-family="Times,serif" font-size="14.00">demo book</text>
</g>
<!-- B -->
<g id="node2" class="node">
<title>B</title>
<polygon fill="pink" stroke="black" points="302.7,-252 235.7,-252 235.7,-216 302.7,-216 302.7,-252"/>
<text text-anchor="middle" x="269.2" y="-230.3" font-family="Times,serif" font-size="14.00">assets dir</text>
</g>
<!-- A&#45;&gt;B -->
<g id="edge1" class="edge">
<title>A&#45;&gt;B</title>
<path fill="none" stroke="black" d="M419.04,-290.5C387.97,-278.99 344.6,-262.93 312.5,-251.04"/>
<polygon fill="black" stroke="black" points="313.52,-247.68 302.93,-247.49 311.09,-254.25 313.52,-247.68"/>
</g>
<!-- C -->
<g id="node3" class="node">
<title>C</title>
<polygon fill="orange" stroke="black" points="401.7,-252 326.7,-252 326.7,-216 401.7,-216 401.7,-252"/>
<text text-anchor="middle" x="364.2" y="-230.3" font-family="Times,serif" font-size="14.00">content dir</text>
</g>
<!-- A&#45;&gt;C -->
<g id="edge2" class="edge">
<title>A&#45;&gt;C</title>
<path fill="none" stroke="black" d="M434.96,-287.7C423.01,-278.8 408.27,-267.82 395.35,-258.2"/>
<polygon fill="black" stroke="black" points="397.28,-255.27 387.16,-252.1 393.09,-260.88 397.28,-255.27"/>
</g>
<!-- D -->
<g id="node4" class="node">
<title>D</title>
<polygon fill="cyan" stroke="black" points="496.2,-252 420.2,-252 420.2,-216 496.2,-216 496.2,-252"/>
<text text-anchor="middle" x="458.2" y="-230.3" font-family="Times,serif" font-size="14.00">index html</text>
</g>
<!-- A&#45;&gt;D -->
<g id="edge3" class="edge">
<title>A&#45;&gt;D</title>
<path fill="none" stroke="black" d="M458.2,-287.7C458.2,-279.98 458.2,-270.71 458.2,-262.11"/>
<polygon fill="black" stroke="black" points="461.7,-262.1 458.2,-252.1 454.7,-262.1 461.7,-262.1"/>
</g>
<!-- E -->
<g id="node5" class="node">
<title>E</title>
<polygon fill="yellow" stroke="black" points="576.2,-252 514.2,-252 514.2,-216 576.2,-216 576.2,-252"/>
<text text-anchor="middle" x="545.2" y="-230.3" font-family="Times,serif" font-size="14.00">toc html</text>
</g>
<!-- A&#45;&gt;E -->
<g id="edge4" class="edge">
<title>A&#45;&gt;E</title>
<path fill="none" stroke="black" d="M479.7,-287.7C490.66,-278.88 504.14,-268.03 516.02,-258.47"/>
<polygon fill="black" stroke="black" points="518.34,-261.1 523.94,-252.1 513.95,-255.65 518.34,-261.1"/>
</g>
<!-- F -->
<g id="node6" class="node">
<title>F</title>
<polygon fill="aquamarine" stroke="black" points="684.2,-252 594.2,-252 594.2,-216 684.2,-216 684.2,-252"/>
<text text-anchor="middle" x="639.2" y="-230.3" font-family="Times,serif" font-size="14.00">manifest json</text>
</g>
<!-- A&#45;&gt;F -->
<g id="edge5" class="edge">
<title>A&#45;&gt;F</title>
<path fill="none" stroke="black" d="M497.47,-289.81C523.35,-279.8 557.55,-266.58 585.88,-255.62"/>
<polygon fill="black" stroke="black" points="587.17,-258.87 595.23,-252 584.65,-252.34 587.17,-258.87"/>
</g>
<!-- a -->
<g id="node7" class="node">
<title>a</title>
<polygon fill="gainsboro" stroke="black" points="153.2,-180 79.2,-180 79.2,-144 153.2,-144 153.2,-180"/>
<text text-anchor="middle" x="116.2" y="-158.3" font-family="Times,serif" font-size="14.00">images dir</text>
</g>
<!-- B&#45;&gt;a -->
<g id="edge6" class="edge">
<title>B&#45;&gt;a</title>
<path fill="none" stroke="brown" stroke-dasharray="5,2" d="M235.62,-217.64C214.19,-207.83 186.11,-194.99 162.56,-184.21"/>
<polygon fill="brown" stroke="brown" points="153.45,-180.04 164.42,-180.11 158,-182.12 162.54,-184.2 162.54,-184.2 162.54,-184.2 158,-182.12 160.67,-188.3 153.45,-180.04 153.45,-180.04"/>
</g>
<!-- b -->
<g id="node8" class="node">
<title>b</title>
<polygon fill="cornsilk" stroke="black" points="296.2,-180 242.2,-180 242.2,-144 296.2,-144 296.2,-180"/>
<text text-anchor="middle" x="269.2" y="-158.3" font-family="Times,serif" font-size="14.00">css dir</text>
</g>
<!-- B&#45;&gt;b -->
<g id="edge7" class="edge">
<title>B&#45;&gt;b</title>
<path fill="none" stroke="brown" stroke-dasharray="5,2" d="M269.2,-215.7C269.2,-207.98 269.2,-198.71 269.2,-190.11"/>
<polygon fill="brown" stroke="brown" points="269.2,-180.1 273.7,-190.1 269.2,-185.1 269.2,-190.1 269.2,-190.1 269.2,-190.1 269.2,-185.1 264.7,-190.1 269.2,-180.1 269.2,-180.1"/>
</g>
<!-- c -->
<g id="node9" class="node">
<title>c</title>
<ellipse fill="none" stroke="black" cx="370.2" cy="-162" rx="55.79" ry="18"/>
<text text-anchor="middle" x="370.2" y="-158.3" font-family="Times,serif" font-size="14.00">chapter html</text>
</g>
<!-- C&#45;&gt;c -->
<g id="edge8" class="edge">
<title>C&#45;&gt;c</title>
<path fill="none" stroke="brown" stroke-dasharray="5,2" d="M365.68,-215.7C366.34,-207.98 367.14,-198.71 367.87,-190.11"/>
<polygon fill="brown" stroke="brown" points="368.73,-180.1 372.36,-190.45 368.3,-185.09 367.88,-190.07 367.88,-190.07 367.88,-190.07 368.3,-185.09 363.39,-189.68 368.73,-180.1 368.73,-180.1"/>
</g>
<!-- a1 -->
<g id="node12" class="node">
<title>a1</title>
<ellipse fill="none" stroke="black" cx="44.2" cy="-90" rx="44.39" ry="18"/>
<text text-anchor="middle" x="44.2" y="-86.3" font-family="Times,serif" font-size="14.00">cover jpg</text>
</g>
<!-- a&#45;&gt;a1 -->
<g id="edge9" class="edge">
<title>a&#45;&gt;a1</title>
<path fill="none" stroke="brown" stroke-dasharray="5,2" d="M98.4,-143.7C89.24,-134.79 77.95,-123.81 68.05,-114.19"/>
<polygon fill="brown" stroke="brown" points="60.8,-107.14 71.11,-110.89 64.39,-110.63 67.97,-114.12 67.97,-114.12 67.97,-114.12 64.39,-110.63 64.84,-117.34 60.8,-107.14 60.8,-107.14"/>
</g>
<!-- d -->
<g id="node10" class="node">
<title>d</title>
<ellipse fill="none" stroke="black" cx="151.2" cy="-90" rx="44.69" ry="18"/>
<text text-anchor="middle" x="151.2" y="-86.3" font-family="Times,serif" font-size="14.00">media dir</text>
</g>
<!-- b&#45;&gt;d -->
<g id="edge13" class="edge">
<title>b&#45;&gt;d</title>
<path fill="none" stroke="green" stroke-dasharray="5,2" d="M242.12,-144.94C224.82,-134.67 202.26,-121.29 183.95,-110.43"/>
<polygon fill="green" stroke="green" points="175.34,-105.32 186.23,-106.55 179.64,-107.87 183.94,-110.42 183.94,-110.42 183.94,-110.42 179.64,-107.87 181.64,-114.29 175.34,-105.32 175.34,-105.32"/>
</g>
<!-- b1 -->
<g id="node13" class="node">
<title>b1</title>
<ellipse fill="none" stroke="black" cx="269.2" cy="-90" rx="55.49" ry="18"/>
<text text-anchor="middle" x="269.2" y="-86.3" font-family="Times,serif" font-size="14.00">mathlive css</text>
</g>
<!-- b&#45;&gt;b1 -->
<g id="edge10" class="edge">
<title>b&#45;&gt;b1</title>
<path fill="none" stroke="brown" stroke-dasharray="5,2" d="M269.2,-143.7C269.2,-135.98 269.2,-126.71 269.2,-118.11"/>
<polygon fill="brown" stroke="brown" points="269.2,-108.1 273.7,-118.1 269.2,-113.1 269.2,-118.1 269.2,-118.1 269.2,-118.1 269.2,-113.1 264.7,-118.1 269.2,-108.1 269.2,-108.1"/>
</g>
<!-- b2 -->
<g id="node14" class="node">
<title>b2</title>
<ellipse fill="none" stroke="black" cx="384.2" cy="-90" rx="41.69" ry="18"/>
<text text-anchor="middle" x="384.2" y="-86.3" font-family="Times,serif" font-size="14.00">book css</text>
</g>
<!-- b&#45;&gt;b2 -->
<g id="edge11" class="edge">
<title>b&#45;&gt;b2</title>
<path fill="none" stroke="green" stroke-dasharray="5,2" d="M296.45,-144.41C313.19,-134.22 334.72,-121.12 352.26,-110.44"/>
<polygon fill="green" stroke="green" points="361.02,-105.11 354.82,-114.15 356.75,-107.71 352.48,-110.31 352.48,-110.31 352.48,-110.31 356.75,-107.71 350.14,-106.46 361.02,-105.11 361.02,-105.11"/>
</g>
<!-- b3 -->
<g id="node15" class="node">
<title>b3</title>
<ellipse fill="none" stroke="black" cx="503.2" cy="-90" rx="59.29" ry="18"/>
<text text-anchor="middle" x="503.2" y="-86.3" font-family="Times,serif" font-size="14.00">appaloosa css</text>
</g>
<!-- b&#45;&gt;b3 -->
<g id="edge12" class="edge">
<title>b&#45;&gt;b3</title>
<path fill="none" stroke="green" stroke-dasharray="5,2" d="M296.5,-147.49C299.4,-146.24 302.34,-145.05 305.2,-144 318.84,-139 395.67,-118.8 449.51,-104.84"/>
<polygon fill="green" stroke="green" points="459.28,-102.31 450.72,-109.17 454.43,-103.56 449.59,-104.82 449.59,-104.82 449.59,-104.82 454.43,-103.56 448.47,-100.46 459.28,-102.31 459.28,-102.31"/>
</g>
<!-- d1 -->
<g id="node11" class="node">
<title>d1</title>
<ellipse fill="none" stroke="black" cx="151.2" cy="-18" rx="28.7" ry="18"/>
<text text-anchor="middle" x="151.2" y="-14.3" font-family="Times,serif" font-size="14.00">fonts</text>
</g>
<!-- d&#45;&gt;d1 -->
<g id="edge14" class="edge">
<title>d&#45;&gt;d1</title>
<path fill="none" stroke="green" stroke-dasharray="5,2" d="M151.2,-71.7C151.2,-63.98 151.2,-54.71 151.2,-46.11"/>
<polygon fill="green" stroke="green" points="151.2,-36.1 155.7,-46.1 151.2,-41.1 151.2,-46.1 151.2,-46.1 151.2,-46.1 151.2,-41.1 146.7,-46.1 151.2,-36.1 151.2,-36.1"/>
</g>
</g>
</svg>
